<svg width="137" height="141" viewBox="0 0 137 141" fill="none" xmlns="http://www.w3.org/2000/svg">
<g clip-path="url(#clip0_1_141)">
<path d="M134.549 92.401C129.233 107.56 120.16 119.487 107.328 128.18C95.6615 136.086 83.0223 140.039 69.4106 140.039C50.0878 140.039 33.6906 132.975 20.2193 118.845C6.74801 104.716 0.00322973 88.3824 -0.0149994 69.8451C-0.0149994 50.6626 6.95217 34.2317 20.8865 20.5525C34.8209 6.87334 50.9919 0.0373919 69.3997 0.0446836C85.7348 0.0446836 100.448 5.68389 113.541 16.9623C123.652 25.7779 130.069 34.7868 132.791 43.9889H66.493C63.7714 43.9889 61.1136 45.3506 58.5196 48.074C55.2785 51.574 53.6579 56.1751 53.6579 61.8772C53.6579 70.0438 56.1863 77.3036 61.2431 83.6565C65.9097 89.4898 70.6411 92.4065 75.4372 92.4065L134.549 92.401Z" fill="#FF9900"/>
<path d="M64.8047 76.4222C66.4052 77.9279 67.9547 78.6817 69.4531 78.6835C69.9635 78.6712 70.4682 78.5732 70.9461 78.3937C71.1989 78.2994 71.4409 78.1784 71.668 78.0327C71.8895 77.8878 72.1137 77.7374 72.3379 77.5761C72.7555 77.2251 73.0851 76.7813 73.3004 76.28C73.5571 75.7714 73.6892 75.2091 73.6859 74.6394C73.6859 73.8063 72.9486 72.2195 71.4738 69.8789L69.4531 67.0925C67.1143 63.8879 65.9458 61.4051 65.9477 59.6441C65.9218 58.9169 66.0448 58.192 66.309 57.514C66.5733 56.836 66.9732 56.2191 67.4844 55.7012C68.476 54.7077 69.7576 54.2109 71.3289 54.2109C72.9695 54.2109 74.3641 54.9647 75.5125 56.4723L73.5984 58.2496C72.6997 57.4493 71.8503 57.0483 71.05 57.0465C69.4805 57.0465 68.6957 57.7684 68.6957 59.2121C68.6957 60.397 69.8651 62.5918 72.2039 65.7965C74.9911 70.2808 76.3848 73.3725 76.3848 75.0714C76.3802 75.9626 76.2009 76.8442 75.857 77.6663C75.5425 78.4588 75.0483 79.1673 74.4133 79.7362C73.7985 80.3596 73.0624 80.85 72.2504 81.1773C71.3821 81.53 70.4532 81.7093 69.516 81.705C67.9793 81.705 66.4098 81.1918 64.8074 80.1655L64.8047 76.4222Z" fill="#0064B0"/>
<path d="M87.8744 54.1587H90.8084V81.5024H87.8744V64.5028H82.1076V81.5188H79.1709V54.1587H82.1049V61.6098H87.8717L87.8744 54.1587Z" fill="#0064B0"/>
<path d="M121.666 67.9159C121.68 69.7326 121.319 71.5327 120.608 73.2042C119.901 74.8386 118.89 76.3233 117.627 77.5792C116.352 78.8916 114.828 79.9372 113.145 80.6554C111.461 81.3736 109.652 81.7501 107.822 81.7628C105.988 81.764 104.173 81.3919 102.487 80.6691C99.1517 79.2559 96.4971 76.6003 95.0851 73.2644C94.3611 71.5791 93.9889 69.7638 93.9914 67.9296C93.9821 66.0638 94.3543 64.2158 95.0851 62.4991C95.7807 60.8471 96.8114 59.3574 98.1121 58.1241C99.3672 56.8609 100.852 55.8492 102.487 55.1436C105.903 53.7379 109.735 53.7379 113.151 55.1436C114.805 55.8418 116.307 56.854 117.575 58.1241C118.837 59.3798 119.848 60.8646 120.553 62.4991C121.289 64.2102 121.667 66.0534 121.666 67.9159V67.9159ZM98.6426 61.8155C97.419 63.6155 96.7654 65.7421 96.7668 67.9186C96.7423 69.3801 97.0548 70.8275 97.6801 72.1487C98.8453 74.787 100.953 76.8952 103.592 78.0604C104.924 78.648 106.366 78.9436 107.822 78.9273C109.276 78.9306 110.716 78.6356 112.052 78.0604C113.366 77.4941 114.557 76.6778 115.56 75.6569C116.56 74.637 117.374 73.4496 117.964 72.1487C118.549 70.8153 118.84 69.3718 118.819 67.9159C118.824 66.4766 118.533 65.0516 117.964 63.7296C117.393 62.4408 116.613 61.2553 115.656 60.2214C114.637 59.2199 113.449 58.4062 112.148 57.8178C110.79 57.1994 109.313 56.8876 107.822 56.9045C106.007 56.883 104.218 57.3304 102.627 58.2034C101.002 59.0325 99.6265 60.2792 98.6426 61.8155V61.8155Z" fill="#0064B0"/>
<path d="M127.769 81.5188H124.835V54.1587L127.769 54.2052C128.926 54.2425 130.062 54.522 131.105 55.0255C132.13 55.544 133.065 56.2255 133.872 57.0434C134.687 57.8751 135.337 58.8541 135.786 59.9282C136.231 61.0512 136.462 62.2476 136.467 63.4555C136.46 64.6401 136.233 65.8131 135.797 66.9145C135.383 68.0115 134.744 69.0099 133.921 69.8458C133.115 70.6648 132.18 71.3464 131.154 71.8637C130.093 72.3648 128.941 72.6439 127.769 72.684V81.5188ZM127.769 69.8375C128.567 69.7913 129.346 69.579 130.058 69.2141C130.769 68.8853 131.402 68.4101 131.917 67.8196C132.444 67.2149 132.877 66.5347 133.202 65.8016C133.534 65.0621 133.697 64.2577 133.678 63.4473C133.684 62.6372 133.522 61.8346 133.202 61.0903C132.847 60.3739 132.416 59.6975 131.917 59.0723C131.378 58.496 130.75 58.0096 130.058 57.6313C129.703 57.4684 129.338 57.3313 128.964 57.2212C128.575 57.1084 128.175 57.036 127.772 57.0052L127.769 69.8375Z" fill="#0064B0"/>
<path d="M56.2405 132.542C67.1001 132.542 75.9035 123.739 75.9035 112.879C75.9035 102.02 67.1001 93.2166 56.2405 93.2166C45.381 93.2166 36.5776 102.02 36.5776 112.879C36.5776 123.739 45.381 132.542 56.2405 132.542Z" fill="#0064B0"/>
<path d="M50.5039 118.613H48.5898V124.356H63.8859V118.613H61.9719V120.527H50.5039V118.613ZM44.8738 114.069C44.7693 114.463 44.7501 114.875 44.8177 115.277C44.8852 115.679 45.0378 116.062 45.2653 116.4C45.4929 116.739 45.79 117.025 46.1369 117.239C46.4839 117.453 46.8725 117.591 47.2769 117.642C47.6813 117.694 48.0922 117.659 48.4819 117.539C48.8716 117.42 49.2313 117.218 49.5368 116.948C49.8423 116.678 50.0867 116.346 50.2534 115.974C50.4202 115.602 50.5056 115.198 50.5039 114.791C50.5039 115.552 50.8064 116.282 51.3448 116.821C51.8833 117.359 52.6135 117.662 53.375 117.662C54.1364 117.662 54.8667 117.359 55.4052 116.821C55.9436 116.282 56.2461 115.552 56.2461 114.791C56.2461 115.552 56.5486 116.282 57.087 116.821C57.6254 117.359 58.3557 117.662 59.1172 117.662C59.8786 117.662 60.6089 117.359 61.1473 116.821C61.6858 116.282 61.9883 115.552 61.9883 114.791C61.9888 115.166 62.0632 115.538 62.207 115.884C62.3508 116.232 62.5617 116.548 62.8277 116.814C63.0938 117.08 63.4097 117.291 63.7574 117.435C64.4603 117.725 65.2494 117.725 65.9521 117.434C66.6547 117.143 67.2136 116.586 67.5062 115.884C67.6479 115.537 67.7212 115.166 67.7223 114.791C67.7193 114.547 67.6853 114.304 67.6211 114.069L65.8109 101.409H46.6812L44.8738 114.069Z" fill="white"/>
</g>
<defs>
<clipPath id="clip0_1_141">
<rect width="136.47" height="140" fill="white" transform="translate(0 0.034668)"/>
</clipPath>
</defs>
</svg>
