<svg width="36" height="36" viewBox="0 0 36 36" fill="none" xmlns="http://www.w3.org/2000/svg">
<path d="M33.243 8.48438C32.0978 8.99092 30.8834 9.32359 29.64 9.47138C30.9506 8.68753 31.9315 7.4539 32.4 6.00038C31.17 6.73238 29.8215 7.24538 28.416 7.52288C27.4719 6.51275 26.2205 5.84282 24.8564 5.61726C23.4923 5.39169 22.0919 5.62311 20.8729 6.27556C19.6538 6.928 18.6845 7.9649 18.1156 9.22507C17.5467 10.4852 17.4101 11.898 17.727 13.2439C15.2326 13.1189 12.7925 12.4707 10.5649 11.3414C8.33732 10.2121 6.37215 8.62695 4.79696 6.68888C4.23939 7.64655 3.94639 8.73522 3.94796 9.84338C3.94796 12.0184 5.05496 13.9399 6.73796 15.0649C5.74197 15.0335 4.76791 14.7645 3.89696 14.2804V14.3584C3.89726 15.8069 4.39851 17.2108 5.31573 18.332C6.23295 19.4531 7.50968 20.2226 8.92946 20.5099C8.00488 20.7604 7.03542 20.7974 6.09446 20.6179C6.49476 21.8647 7.27497 22.9552 8.32584 23.7365C9.37672 24.5179 10.6456 24.9511 11.955 24.9754C10.6537 25.9974 9.16372 26.7529 7.57028 27.1986C5.97683 27.6444 4.31115 27.7718 2.66846 27.5734C5.536 29.4175 8.8741 30.3966 12.2835 30.3934C23.823 30.3934 30.1335 20.8339 30.1335 12.5434C30.1335 12.2734 30.126 12.0004 30.114 11.7334C31.3423 10.8456 32.4024 9.74591 33.2445 8.48588L33.243 8.48438Z" fill="#2A3E52"/>
</svg>
